<?xml version="1.0" encoding="UTF-8" standalone="no"?>
<!DOCTYPE svg PUBLIC "-//W3C//DTD SVG 1.1//EN" "http://www.w3.org/Graphics/SVG/1.1/DTD/svg11.dtd">
<svg xmlns:dc="http://purl.org/dc/elements/1.1/" xmlns="http://www.w3.org/2000/svg" version="1.1" xmlns:xl="http://www.w3.org/1999/xlink" viewBox="78 156 1049 318" width="1049" height="318">
  <defs/>
  <metadata> Produced by OmniGraffle 7.13 
    <dc:date>2020-02-16 12:24:46 +0000</dc:date>
  </metadata>
  <g id="Canvas_1" fill="none" stroke="none" stroke-opacity="1" fill-opacity="1" stroke-dasharray="none">
    <title>Canvas 1</title>
    <g id="Canvas_1: Layer 1">
      <title>Layer 1</title>
      <g id="Group_2">
        <title>social-media</title>
        <g id="Group_3">
          <title>social-media: Layer 1</title>
          <g id="Group_6">
            <title>Graphic_52</title>
            <g id="Graphic_7">
              <path d="M 125.485 393.5696 L 125.32753 393.5696 L 191.97087 437 L 258.61422 393.5696 L 258.45676 393.5696 C 289.3127 373.16715 300.94175 337.569 300.94175 301.97087 L 300.94175 193 L 83 193 L 83 301.97087 C 83 337.569 94.62905 373.16715 125.485 393.5696 Z M 144.97148 234.15017 C 144.97148 230.85233 147.29798 227.87567 150.72114 227.12367 C 185.25048 219.52533 186.55864 220.51233 189.89564 213.97933 C 191.19598 211.457 193.7888 210 196.4913 210 C 207.7948 210 205.3273 229.61467 187.74148 233.75067 C 182.73598 234.92567 153.94848 241.1845 153.94848 241.1845 C 149.35814 242.195 144.97148 238.77967 144.97148 234.15017 Z M 153.94848 265.94567 C 149.98481 266.823 146.04464 264.38683 145.15164 260.5015 C 144.25864 256.61617 146.74964 252.76217 150.72114 251.88483 L 229.99448 234.45567 C 234.59264 233.43733 238.97148 236.89183 238.97148 241.49 C 238.97148 244.78 236.6528 247.75667 233.21398 248.50867 Z M 150.72114 276.68517 L 229.99448 259.24817 C 234.59264 258.22983 238.97148 261.66083 238.97148 266.2825 C 238.97148 269.58033 236.6528 272.54917 233.2218 273.309 L 167.8683 287.68317 C 177.3623 296.32333 184.13814 301.52467 184.13814 314.2695 L 184.13814 319.66667 L 199.8048 319.66667 L 199.8048 310.5095 C 199.8048 299.04933 207.87314 289.10883 219.27848 286.50033 L 229.14064 283.80567 C 233.7388 282.78733 238.11764 286.24183 238.11764 290.84 C 238.11764 294.13 235.79898 297.10667 232.36798 297.85867 L 224.04898 300.13817 C 218.31498 301.415 214.24164 306.41267 214.24164 312.16233 L 214.24164 319.66667 L 231.13814 319.66667 L 231.13814 340.33883 C 231.13814 354.25083 218.40898 360.76817 215.47148 374.5 L 168.47148 374.5 C 165.58098 360.54883 152.80481 354.27433 152.80481 340.33883 L 152.80481 319.66667 L 169.70914 319.66667 L 169.70914 315.7735 C 169.70914 302.402 154.26964 295.8455 147.66614 289.242 C 145.99764 287.5735 144.97148 285.99117 144.97148 283.70383 C 144.97148 280.4151 147.29616 277.4395 150.72114 276.68517 L 150.71714 276.68605 C 150.71848 276.68575 150.71981 276.68546 150.72114 276.68517 Z M 187.68664 398 C 185.43064 398 183.2843 397.02083 181.79598 395.32883 L 170.4298 382.33333 L 213.51314 382.33333 L 202.14698 395.32883 C 200.65864 397.02083 198.50448 398 196.24848 398 Z" fill="black"/>
            </g>
          </g>
          <g id="Group_28">
            <title>Department 
of Bad Ideas</title>
            <g id="Graphic_8">
              <path d="M 396.72 275.26 L 411.44 275.26 C 419.88804 275.26 426.48 272.3587 431.216 266.556 C 435.952 260.7533 438.32 252.00673 438.32 240.316 C 438.32 228.53994 436.016 219.90003 431.408 214.396 C 426.8 208.89197 420.35737 206.14 412.08 206.14 L 396.72 206.14 Z M 372.4 285.5 L 372.4 277.82 L 383.28 275.26 L 383.28 206.14 L 372.4 203.58 L 372.4 196.54 L 396.72 195.9 L 412.72 195.9 C 419.0347 195.9 424.688 196.86 429.68 198.78 C 434.672 200.7 438.896 203.51598 442.352 207.228 C 445.808 210.94002 448.4533 215.5053 450.288 220.924 C 452.1227 226.3427 453.04 232.55063 453.04 239.548 C 453.04 246.54537 452.03734 252.85997 450.032 258.492 C 448.02666 264.12403 445.18935 268.9453 441.52 272.956 C 437.85065 276.9667 433.41336 280.06 428.208 282.236 C 423.00264 284.412 417.20003 285.5 410.8 285.5 Z" fill="black"/>
            </g>
            <g id="Graphic_9">
              <path d="M 520.88 253.244 L 476.72 253.5 C 476.72 260.49737 478.4053 266.08665 481.776 270.268 C 485.1467 274.44935 489.648 276.54 495.28 276.54 C 497.15734 276.54 499.03466 276.36934 500.912 276.028 C 502.78934 275.68666 504.56 275.26 506.224 274.748 C 507.888 274.236 509.40266 273.66 510.768 273.02 C 512.13334 272.38 513.2853 271.76134 514.224 271.164 L 516.784 269.5 L 521.264 276.156 C 518.36265 278.46 515.696 280.27333 513.264 281.596 C 510.832 282.91867 507.97335 284.11333 504.688 285.18 C 501.40265 286.24667 497.84 286.78 494 286.78 C 483.9306 286.78 476.29336 283.72936 471.088 277.628 C 465.88264 271.52664 463.28 263.1854 463.28 252.604 C 463.28 247.3133 464.048 242.44936 465.584 238.012 C 467.12 233.57464 469.27465 229.75602 472.048 226.556 C 474.82135 223.35598 478.128 220.86 481.968 219.068 C 485.808 217.276 490.032 216.38 494.64 216.38 C 512.5601 216.38 521.52 226.40657 521.52 246.46 Z M 477.232 243.9 L 507.952 243.9 C 507.952 238.69464 506.8427 234.47068 504.624 231.228 C 502.4053 227.98532 498.82136 226.364 493.872 226.364 C 489.008 226.364 485.12535 228.00665 482.224 231.292 C 479.32265 234.57735 477.65867 238.77997 477.232 243.9 Z" fill="black"/>
            </g>
            <g id="Graphic_10">
              <path d="M 550.96 217.66 L 551.984 224.828 C 557.95736 219.19597 564.4426 216.38 571.44 216.38 C 580.4854 216.38 587.3333 219.3453 591.984 225.276 C 596.6347 231.2067 598.96 239.63328 598.96 250.556 C 598.96 255.8467 598.256 260.71064 596.848 265.148 C 595.44 269.58536 593.28535 273.404 590.384 276.604 C 587.48265 279.804 583.87735 282.3 579.568 284.092 C 575.25865 285.884 570.2027 286.78 564.4 286.78 C 560.816 286.78 556.976 286.18267 552.88 284.988 L 552.88 305.34 L 566.32 307.9 L 566.32 314.94 L 529.84 314.94 L 529.84 307.9 L 540.08 305.34 L 540.08 227.9 L 529.2 225.34 L 529.2 218.3 Z M 552.88 235.58 L 552.88 273.98 C 555.52535 275.68668 560.0053 276.54 566.32 276.54 C 579.12006 276.54 585.52 268.00675 585.52 250.94 C 585.52 243.43063 584.1547 237.50002 581.424 233.148 C 578.6933 228.79598 574.512 226.62 568.88 226.62 C 565.6373 226.62 562.5867 227.36666 559.728 228.86 C 556.8693 230.35334 554.5867 232.59332 552.88 235.58 Z" fill="black"/>
            </g>
            <g id="Graphic_11">
              <path d="M 614.32 221.5 C 623.53605 218.08665 631.98396 216.38 639.664 216.38 C 647.1734 216.38 652.9333 217.89465 656.944 220.924 C 660.9547 223.95335 662.96 229.05196 662.96 236.22 L 662.96 275.26 L 673.2 277.82 L 673.2 284.86 L 653.36 285.5 L 650.672 276.54 C 643.8453 283.3667 637.104 286.78 630.448 286.78 C 623.792 286.78 618.8 285.116 615.472 281.788 C 612.144 278.45998 610.48 273.72403 610.48 267.58 C 610.48 254.35327 620.2932 247.74 639.92 247.74 L 650.16 247.74 L 650.16 237.5 C 650.16 229.81996 646.1067 225.98 638 225.98 C 633.392 225.98 629.5947 226.44933 626.608 227.388 L 625.072 227.9 L 623.28 237.5 L 614.96 237.5 Z M 650.16 256.06 L 641.2 256.06 C 634.8 256.06 630.256 256.892 627.568 258.556 C 624.88 260.22 623.536 262.80132 623.536 266.3 C 623.536 269.62802 624.3253 272.16666 625.904 273.916 C 627.4827 275.66534 629.7653 276.54 632.752 276.54 C 634.2027 276.54 635.67466 276.284 637.168 275.772 C 638.66134 275.26 640.112 274.62 641.52 273.852 C 642.928 273.084 644.18666 272.252 645.296 271.356 C 646.40534 270.46 647.3013 269.628 647.984 268.86 L 650.16 266.3 Z" fill="black"/>
            </g>
            <g id="Graphic_12">
              <path d="M 703.28 217.66 L 704.432 227.004 C 710.7467 219.9213 717.1893 216.38 723.76 216.38 C 727.2587 216.38 730.6293 216.892 733.872 217.916 L 735.28 218.3 L 734.64 236.86 L 726.32 236.86 L 724.4 227.26 C 717.0613 227.26 710.8747 230.58797 705.84 237.244 L 705.84 275.26 L 718.64 278.46 L 718.64 285.5 L 682.16 285.5 L 682.16 278.46 L 693.04 275.26 L 693.04 227.9 L 682.16 225.34 L 682.16 218.3 Z" fill="black"/>
            </g>
            <g id="Graphic_13">
              <path d="M 764.72 199.612 L 764.72 218.3 L 783.28 218.3 L 783.28 227.9 L 764.72 227.9 L 764.72 268.988 C 764.72 274.19336 766.8533 276.796 771.12 276.796 C 773.8507 276.796 777.17865 275.72934 781.104 273.596 L 784.56 280.38 C 778.7573 284.6467 772.784 286.78 766.64 286.78 C 762.288 286.78 758.7467 285.35068 756.016 282.492 C 753.2853 279.63332 751.92 274.87603 751.92 268.22 L 751.92 227.9 L 739.12 227.9 L 739.12 219.58 L 751.92 218.3 L 751.92 202.172 Z" fill="black"/>
            </g>
            <g id="Graphic_14">
              <path d="M 813.36 217.66 L 814.512 226.748 C 815.7067 225.63866 817.1573 224.46534 818.864 223.228 C 820.5707 221.99066 822.448 220.86 824.496 219.836 C 826.544 218.812 828.6987 217.98 830.96 217.34 C 833.2213 216.7 835.4613 216.38 837.68 216.38 C 846.2987 216.38 852.2293 220.0493 855.472 227.388 C 857.008 225.852 858.8 224.42267 860.848 223.1 C 862.896 221.77733 865.008 220.604 867.184 219.58 C 869.36 218.556 871.4933 217.76667 873.584 217.212 C 875.6747 216.65733 877.5733 216.38 879.28 216.38 C 892.5067 216.38 899.12 224.05992 899.12 239.42 L 899.12 275.26 L 908.72 278.46 L 908.72 285.5 L 878 285.5 L 878 278.46 L 886.32 275.26 L 886.32 240.7 C 886.32 236.00664 885.5093 232.59334 883.888 230.46 C 882.2667 228.32666 879.6214 227.26 875.952 227.26 C 874.16 227.26 872.432 227.49466 870.768 227.964 C 869.104 228.43334 867.5467 229.052 866.096 229.82 C 864.6453 230.588 863.3653 231.42 862.256 232.316 C 861.1467 233.212 860.2507 234.08666 859.568 234.94 L 857.52 237.5 L 857.52 275.26 L 865.84 278.46 L 865.84 285.5 L 836.4 285.5 L 836.4 278.46 L 844.72 275.26 L 844.72 240.7 C 844.72 236.00664 843.9093 232.59334 842.288 230.46 C 840.6667 228.32666 838.0214 227.26 834.352 227.26 C 832.56 227.26 830.832 227.49466 829.168 227.964 C 827.504 228.43334 825.9467 229.052 824.496 229.82 C 823.0453 230.588 821.7653 231.42 820.656 232.316 C 819.5467 233.212 818.6507 234.08666 817.968 234.94 L 815.92 237.5 L 815.92 275.26 L 824.24 278.46 L 824.24 285.5 L 792.24 285.5 L 792.24 278.46 L 803.12 275.26 L 803.12 227.9 L 792.24 225.34 L 792.24 218.3 Z" fill="black"/>
            </g>
            <g id="Graphic_15">
              <path d="M 975.28 253.244 L 931.12 253.5 C 931.12 260.49737 932.8053 266.08665 936.176 270.268 C 939.5467 274.44935 944.048 276.54 949.68 276.54 C 951.5573 276.54 953.4347 276.36934 955.312 276.028 C 957.1893 275.68666 958.96 275.26 960.624 274.748 C 962.288 274.236 963.8027 273.66 965.168 273.02 C 966.5333 272.38 967.6853 271.76134 968.624 271.164 L 971.184 269.5 L 975.664 276.156 C 972.7627 278.46 970.096 280.27333 967.664 281.596 C 965.232 282.91867 962.3733 284.11333 959.088 285.18 C 955.8027 286.24667 952.24 286.78 948.4 286.78 C 938.3306 286.78 930.6934 283.72936 925.488 277.628 C 920.2826 271.52664 917.68 263.1854 917.68 252.604 C 917.68 247.3133 918.448 242.44936 919.984 238.012 C 921.52 233.57464 923.6747 229.75602 926.448 226.556 C 929.2213 223.35598 932.528 220.86 936.368 219.068 C 940.208 217.276 944.432 216.38 949.04 216.38 C 966.9601 216.38 975.92 226.40657 975.92 246.46 Z M 931.632 243.9 L 962.352 243.9 C 962.352 238.69464 961.2427 234.47068 959.024 231.228 C 956.8053 227.98532 953.2214 226.364 948.272 226.364 C 943.408 226.364 939.5253 228.00665 936.624 231.292 C 933.7227 234.57735 932.0587 238.77997 931.632 243.9 Z" fill="black"/>
            </g>
            <g id="Graphic_16">
              <path d="M 1006.64 217.66 L 1007.792 226.748 C 1008.6453 226.06533 1009.84 225.12667 1011.376 223.932 C 1012.912 222.73733 1014.7253 221.58534 1016.816 220.476 C 1018.9067 219.36666 1021.2107 218.40667 1023.728 217.596 C 1026.2453 216.78533 1028.8693 216.38 1031.6 216.38 C 1038.512 216.38 1043.6533 218.40665 1047.024 222.46 C 1050.3947 226.51335 1052.08 232.16663 1052.08 239.42 L 1052.08 275.26 L 1061.68 278.46 L 1061.68 285.5 L 1030.96 285.5 L 1030.96 278.46 L 1039.28 275.26 L 1039.28 240.7 C 1039.28 236.09198 1038.384 232.7 1036.592 230.524 C 1034.8 228.348 1032.0694 227.26 1028.4 227.26 C 1026.608 227.26 1024.8373 227.49466 1023.088 227.964 C 1021.3387 228.43334 1019.7173 229.052 1018.224 229.82 C 1016.7307 230.588 1015.408 231.42 1014.256 232.316 C 1013.104 233.212 1012.144 234.08666 1011.376 234.94 L 1009.2 237.5 L 1009.2 275.26 L 1017.52 278.46 L 1017.52 285.5 L 985.52 285.5 L 985.52 278.46 L 996.4 275.26 L 996.4 227.9 L 985.52 225.34 L 985.52 218.3 Z" fill="black"/>
            </g>
            <g id="Graphic_17">
              <path d="M 1093.68 199.612 L 1093.68 218.3 L 1112.24 218.3 L 1112.24 227.9 L 1093.68 227.9 L 1093.68 268.988 C 1093.68 274.19336 1095.8133 276.796 1100.08 276.796 C 1102.8107 276.796 1106.1386 275.72934 1110.064 273.596 L 1113.52 280.38 C 1107.7173 284.6467 1101.744 286.78 1095.6 286.78 C 1091.248 286.78 1087.7067 285.35068 1084.976 282.492 C 1082.2453 279.63332 1080.88 274.87603 1080.88 268.22 L 1080.88 227.9 L 1068.08 227.9 L 1068.08 219.58 L 1080.88 218.3 L 1080.88 202.172 Z" fill="black"/>
            </g>
            <g id="Graphic_18">
              <path d="M 373.296 406.604 C 373.296 401.14264 374.08533 396.172 375.664 391.692 C 377.24267 387.212 379.48265 383.39335 382.384 380.236 C 385.28535 377.07865 388.72 374.64668 392.688 372.94 C 396.656 371.23332 401.0293 370.38 405.808 370.38 C 415.3654 370.38 422.7893 373.4093 428.08 379.468 C 433.3707 385.5267 436.016 393.93195 436.016 404.684 C 436.016 409.9747 435.248 414.8173 433.712 419.212 C 432.176 423.6067 430.02135 427.404 427.248 430.604 C 424.47465 433.804 421.104 436.3 417.136 438.092 C 413.168 439.884 408.752 440.78 403.888 440.78 C 394.15995 440.78 386.62936 437.8787 381.296 432.076 C 375.96264 426.2733 373.296 417.7827 373.296 406.604 Z M 405.296 380.62 C 392.9226 380.62 386.736 388.9399 386.736 405.58 C 386.736 422.2201 392.70927 430.54 404.656 430.54 C 410.88536 430.54 415.4293 428.4067 418.288 424.14 C 421.1467 419.8733 422.576 413.4734 422.576 404.94 C 422.576 388.7266 416.81606 380.62 405.296 380.62 Z" fill="black"/>
            </g>
            <g id="Graphic_19">
              <path d="M 450.096 373.58 L 461.616 372.3 L 461.616 364.62 C 461.616 356.85463 463.664 350.75336 467.76 346.316 C 471.856 341.87864 477.7013 339.66 485.296 339.66 C 488.88 339.66 492.272 340.02266 495.472 340.748 C 498.672 341.47334 500.95466 342.22 502.32 342.988 L 504.496 344.14 L 504.496 360.14 L 495.536 360.14 L 493.616 349.9 C 491.48266 349.47333 488.58135 349.26 484.912 349.26 C 477.91463 349.26 474.416 353.52662 474.416 362.06 L 474.416 372.3 L 491.312 372.3 L 490.928 381.9 L 474.416 381.9 L 474.416 429.26 L 486.832 432.46 L 486.832 439.5 L 450.736 439.5 L 450.736 432.46 L 461.616 429.26 L 461.616 381.9 L 450.096 381.9 Z" fill="black"/>
            </g>
            <g id="Graphic_20">
              <path d="M 532.016 439.5 L 532.016 431.82 L 542.896 429.26 L 542.896 360.14 L 532.016 357.58 L 532.016 350.54 L 555.696 349.9 L 570.416 349.9 C 578.7787 349.9 585.456 351.7773 590.448 355.532 C 595.44 359.2867 597.936 364.87596 597.936 372.3 C 597.936 383.30806 592.3894 390.22 581.296 393.036 C 587.952 394.572 592.92265 397.132 596.208 400.716 C 599.49335 404.3 601.136 408.69464 601.136 413.9 C 601.136 430.96675 590.2561 439.5 568.496 439.5 Z M 555.696 397.9 L 555.696 429.26 L 569.136 429.26 C 581.5094 429.26 587.696 424.3534 587.696 414.54 C 587.696 408.39597 585.84 404.0867 582.128 401.612 C 578.416 399.1373 572.8054 397.9 565.296 397.9 Z M 555.696 360.14 L 555.696 388.3 L 565.296 388.3 C 571.26936 388.3 575.96265 387.084 579.376 384.652 C 582.78935 382.22 584.496 378.70002 584.496 374.092 C 584.496 369.39864 583.1307 365.9 580.4 363.596 C 577.6693 361.292 574.128 360.14 569.776 360.14 Z" fill="black"/>
            </g>
            <g id="Graphic_21">
              <path d="M 617.136 375.5 C 626.35205 372.08665 634.79996 370.38 642.48 370.38 C 649.9894 370.38 655.7493 371.89465 659.76 374.924 C 663.7707 377.95335 665.776 383.05196 665.776 390.22 L 665.776 429.26 L 676.016 431.82 L 676.016 438.86 L 656.176 439.5 L 653.488 430.54 C 646.6613 437.3667 639.92 440.78 633.264 440.78 C 626.608 440.78 621.616 439.116 618.288 435.788 C 614.96 432.46 613.296 427.72403 613.296 421.58 C 613.296 408.35327 623.1092 401.74 642.736 401.74 L 652.976 401.74 L 652.976 391.5 C 652.976 383.81996 648.9227 379.98 640.816 379.98 C 636.208 379.98 632.4107 380.44933 629.424 381.388 L 627.888 381.9 L 626.096 391.5 L 617.776 391.5 Z M 652.976 410.06 L 644.016 410.06 C 637.616 410.06 633.072 410.892 630.384 412.556 C 627.696 414.22 626.352 416.8013 626.352 420.3 C 626.352 423.628 627.1413 426.16666 628.72 427.916 C 630.2987 429.66534 632.5813 430.54 635.568 430.54 C 637.0187 430.54 638.49066 430.284 639.984 429.772 C 641.47734 429.26 642.928 428.62 644.336 427.852 C 645.744 427.084 647.00266 426.252 648.112 425.356 C 649.22134 424.46 650.1173 423.628 650.8 422.86 L 652.976 420.3 Z" fill="black"/>
            </g>
            <g id="Graphic_22">
              <path d="M 744.496 340.94 L 744.496 429.26 L 755.376 431.82 L 755.376 438.86 L 733.616 439.5 L 732.592 432.204 C 726.8746 437.92136 719.8347 440.78 711.472 440.78 C 703.1946 440.78 696.816 437.8147 692.336 431.884 C 687.856 425.9533 685.616 417.74005 685.616 407.244 C 685.616 396.0653 688.4746 387.1267 694.192 380.428 C 699.9094 373.7293 708.3573 370.38 719.536 370.38 C 723.71735 370.38 727.77065 371.06266 731.696 372.428 L 731.696 351.18 L 720.816 348.62 L 720.816 341.58 Z M 731.696 420.94 L 731.696 383.18 C 728.7093 381.47332 724.2294 380.62 718.256 380.62 C 705.4559 380.62 699.056 389.15325 699.056 406.22 C 699.056 413.72937 700.3573 419.66 702.96 424.012 C 705.5627 428.364 709.5946 430.54 715.056 430.54 C 719.23735 430.54 722.77865 429.4307 725.68 427.212 C 728.4107 424.9933 730.416 422.9027 731.696 420.94 Z" fill="black"/>
            </g>
            <g id="Graphic_23">
              <path d="M 828.336 431.82 L 828.336 439.5 L 793.136 439.5 L 793.136 431.82 L 804.016 429.26 L 804.016 360.14 L 793.136 357.58 L 793.136 350.54 L 828.336 349.9 L 828.336 357.58 L 817.456 360.14 L 817.456 429.26 Z" fill="black"/>
            </g>
            <g id="Graphic_24">
              <path d="M 898.096 340.94 L 898.096 429.26 L 908.976 431.82 L 908.976 438.86 L 887.216 439.5 L 886.192 432.204 C 880.4746 437.92136 873.4347 440.78 865.072 440.78 C 856.7946 440.78 850.416 437.8147 845.936 431.884 C 841.456 425.9533 839.216 417.74005 839.216 407.244 C 839.216 396.0653 842.0746 387.1267 847.792 380.428 C 853.5094 373.7293 861.9573 370.38 873.136 370.38 C 877.3174 370.38 881.3706 371.06266 885.296 372.428 L 885.296 351.18 L 874.416 348.62 L 874.416 341.58 Z M 885.296 420.94 L 885.296 383.18 C 882.3093 381.47332 877.8294 380.62 871.856 380.62 C 859.0559 380.62 852.656 389.15325 852.656 406.22 C 852.656 413.72937 853.9573 419.66 856.56 424.012 C 859.1627 428.364 863.1946 430.54 868.656 430.54 C 872.8374 430.54 876.3787 429.4307 879.28 427.212 C 882.0107 424.9933 884.016 422.9027 885.296 420.94 Z" fill="black"/>
            </g>
            <g id="Graphic_25">
              <path d="M 974.896 407.244 L 930.736 407.5 C 930.736 414.49737 932.4213 420.08665 935.792 424.268 C 939.1627 428.44935 943.664 430.54 949.296 430.54 C 951.1733 430.54 953.0507 430.36934 954.928 430.028 C 956.8053 429.68666 958.576 429.26 960.24 428.748 C 961.904 428.236 963.4187 427.66 964.784 427.02 C 966.1493 426.38 967.3013 425.76134 968.24 425.164 L 970.8 423.5 L 975.28 430.156 C 972.3787 432.46 969.712 434.27333 967.28 435.596 C 964.848 436.91867 961.9893 438.11333 958.704 439.18 C 955.4187 440.24667 951.856 440.78 948.016 440.78 C 937.9466 440.78 930.3094 437.72936 925.104 431.628 C 919.8986 425.52664 917.296 417.1854 917.296 406.604 C 917.296 401.3133 918.064 396.44936 919.6 392.012 C 921.136 387.57464 923.2907 383.756 926.064 380.556 C 928.8373 377.356 932.144 374.86 935.984 373.068 C 939.824 371.276 944.048 370.38 948.656 370.38 C 966.5761 370.38 975.536 380.40657 975.536 400.46 Z M 931.248 397.9 L 961.968 397.9 C 961.968 392.69464 960.8587 388.4707 958.64 385.228 C 956.4213 381.9853 952.8374 380.364 947.888 380.364 C 943.024 380.364 939.1413 382.00665 936.24 385.292 C 933.3387 388.57735 931.6747 392.77997 931.248 397.9 Z" fill="black"/>
            </g>
            <g id="Graphic_26">
              <path d="M 989.616 375.5 C 998.832 372.08665 1007.28 370.38 1014.96 370.38 C 1022.4694 370.38 1028.2293 371.89465 1032.24 374.924 C 1036.2507 377.95335 1038.256 383.05196 1038.256 390.22 L 1038.256 429.26 L 1048.496 431.82 L 1048.496 438.86 L 1028.656 439.5 L 1025.968 430.54 C 1019.1413 437.3667 1012.4 440.78 1005.744 440.78 C 999.088 440.78 994.096 439.116 990.768 435.788 C 987.44 432.46 985.776 427.72403 985.776 421.58 C 985.776 408.35327 995.5892 401.74 1015.216 401.74 L 1025.456 401.74 L 1025.456 391.5 C 1025.456 383.81996 1021.4027 379.98 1013.296 379.98 C 1008.688 379.98 1004.8907 380.44933 1001.904 381.388 L 1000.368 381.9 L 998.576 391.5 L 990.256 391.5 Z M 1025.456 410.06 L 1016.496 410.06 C 1010.096 410.06 1005.552 410.892 1002.864 412.556 C 1000.176 414.22 998.832 416.8013 998.832 420.3 C 998.832 423.628 999.6213 426.16666 1001.2 427.916 C 1002.7787 429.66534 1005.0613 430.54 1008.048 430.54 C 1009.4987 430.54 1010.9707 430.284 1012.464 429.772 C 1013.9573 429.26 1015.408 428.62 1016.816 427.852 C 1018.224 427.084 1019.4827 426.252 1020.592 425.356 C 1021.7013 424.46 1022.5973 423.628 1023.28 422.86 L 1025.456 420.3 Z" fill="black"/>
            </g>
            <g id="Graphic_27">
              <path d="M 1058.224 419.02 L 1067.184 419.02 L 1068.592 430.028 C 1069.4453 430.36934 1070.7893 430.64667 1072.624 430.86 C 1074.4587 431.07333 1076.272 431.18 1078.064 431.18 C 1083.6107 431.18 1087.6427 430.348 1090.16 428.684 C 1092.6773 427.02 1093.936 424.48135 1093.936 421.068 C 1093.936 418.764 1093.0613 416.92934 1091.312 415.564 C 1089.5627 414.19866 1087.3653 413.04667 1084.72 412.108 C 1082.0747 411.16933 1079.1947 410.23067 1076.08 409.292 C 1072.9653 408.35333 1070.0853 407.13734 1067.44 405.644 C 1064.7947 404.15066 1062.5973 402.20935 1060.848 399.82 C 1059.0987 397.43065 1058.224 394.27335 1058.224 390.348 C 1058.224 383.94797 1060.3573 379.0627 1064.624 375.692 C 1068.8907 372.3213 1074.5653 370.55067 1081.648 370.38 C 1084.6347 370.46533 1087.6853 370.7 1090.8 371.084 C 1093.9147 371.468 1097.0933 372.172 1100.336 373.196 L 1103.536 374.22 L 1103.152 391.5 L 1094.832 391.5 L 1092.784 381.516 C 1092.1013 381.26 1090.7787 380.94 1088.816 380.556 C 1086.8533 380.172 1084.7627 379.98 1082.544 379.98 C 1081.008 379.98 1079.5573 380.108 1078.192 380.364 C 1076.8267 380.62 1075.6107 381.04666 1074.544 381.644 C 1073.4773 382.24134 1072.624 383.09466 1071.984 384.204 C 1071.344 385.31334 1071.024 386.67866 1071.024 388.3 C 1071.024 390.7747 1071.8987 392.716 1073.648 394.124 C 1075.3973 395.532 1077.5947 396.748 1080.24 397.772 C 1082.8853 398.796 1085.7653 399.77733 1088.88 400.716 C 1091.9947 401.65467 1094.8747 402.87066 1097.52 404.364 C 1100.1653 405.85734 1102.3627 407.756 1104.112 410.06 C 1105.8613 412.364 1106.736 415.3933 1106.736 419.148 C 1106.736 422.732 1105.968 425.8893 1104.432 428.62 C 1102.896 431.3507 1100.8267 433.6333 1098.224 435.468 C 1095.6213 437.3027 1092.592 438.668 1089.136 439.564 C 1085.68 440.46 1081.9894 440.908 1078.064 440.908 C 1076.6133 440.908 1075.0987 440.844 1073.52 440.716 C 1071.9413 440.588 1070.384 440.41733 1068.848 440.204 C 1067.312 439.99067 1065.8827 439.756 1064.56 439.5 C 1063.2373 439.244 1062.1493 438.988 1061.296 438.732 L 1058.352 437.964 Z" fill="black"/>
            </g>
          </g>
        </g>
      </g>
    </g>
  </g>
</svg>
