<?xml version="1.0" encoding="UTF-8" standalone="no"?>
<!DOCTYPE svg PUBLIC "-//W3C//DTD SVG 1.1//EN" "http://www.w3.org/Graphics/SVG/1.1/DTD/svg11.dtd">
<svg xmlns:dc="http://purl.org/dc/elements/1.1/" xmlns="http://www.w3.org/2000/svg" xmlns:xl="http://www.w3.org/1999/xlink" version="1.1" viewBox="121.91176 94.70984 388.74734 440.5803" width="388.74734" height="440.5803">
  <defs/>
  <metadata> Produced by OmniGraffle 7.13 
    <dc:date>2020-02-16 19:56:15 +0000</dc:date>
  </metadata>
  <g id="podcast-touch" stroke-opacity="1" fill="none" stroke="none" stroke-dasharray="none" fill-opacity="1">
    <title>podcast-touch</title>
    <g id="podcast-touch: Layer 1">
      <title>Layer 1</title>
      <g id="Graphic_48">
        <path d="M 124.41176 99 L 124.41176 531 L 505.58824 315 Z M 248.25 337.75 L 248.25 337.75 C 248.25 346.25004 247.27084 353.31247 245.3125 358.9375 C 243.35416 364.56253 240.50002 369.25 236.75 373 C 231.74998 378.00002 225.9167 381.41666 219.25 383.25 C 212.5833 385.08334 205.33337 386 197.5 386 C 189.5833 386 182.52086 385.10418 176.3125 383.3125 C 170.10414 381.52082 164.81252 378.7292 160.4375 374.9375 C 156.06248 371.1458 152.72918 366.27086 150.4375 360.3125 C 148.14582 354.35414 147 347.1667 147 338.75 L 147 326 L 178.5 326 L 178.5 338.5 C 178.5 346.50004 180.06248 352.125 183.1875 355.375 C 186.31252 358.625 191.0833 360.25 197.5 360.25 C 203.83336 360.25 208.58332 358.625 211.75 355.375 C 214.91668 352.125 216.5 346.50004 216.5 338.5 L 216.5 271.25 L 161 271.25 L 161 244 L 248.25 244 Z M 307.825 244 L 307.825 244 C 317.6584 244 326.4708 244.9375 334.2625 246.8125 C 342.0542 248.6875 348.67914 251.56248 354.1375 255.4375 C 359.59586 259.31252 363.7833 264.22914 366.7 270.1875 C 369.6167 276.14586 371.075 283.16663 371.075 291.25 C 371.075 299.4167 369.6167 306.4583 366.7 312.375 C 363.7833 318.2917 359.59586 323.18748 354.1375 327.0625 C 348.67914 330.9375 342.0542 333.8125 334.2625 335.6875 C 326.4708 337.5625 317.6584 338.5 307.825 338.5 L 290.825 338.5 L 290.825 383.5 L 259.075 383.5 L 259.075 244 L 307.825 244 Z M 307.575 312.5 C 313.07503 312.5 317.7625 312.10417 321.6375 311.3125 C 325.51252 310.52083 328.65832 309.27084 331.075 307.5625 C 333.4917 305.85416 335.2625 303.66668 336.3875 301 C 337.5125 298.33332 338.075 295.08335 338.075 291.25 C 338.075 283.74996 335.7417 278.33335 331.075 275 C 326.4083 271.66665 318.57506 270 307.575 270 L 290.825 270 L 290.825 312.5 L 307.575 312.5 Z" fill="black"/>
        <path d="M 124.41176 99 L 124.41176 531 L 505.58824 315 Z M 248.25 337.75 L 248.25 337.75 C 248.25 346.25004 247.27084 353.31247 245.3125 358.9375 C 243.35416 364.56253 240.50002 369.25 236.75 373 C 231.74998 378.00002 225.9167 381.41666 219.25 383.25 C 212.5833 385.08334 205.33337 386 197.5 386 C 189.5833 386 182.52086 385.10418 176.3125 383.3125 C 170.10414 381.52082 164.81252 378.7292 160.4375 374.9375 C 156.06248 371.1458 152.72918 366.27086 150.4375 360.3125 C 148.14582 354.35414 147 347.1667 147 338.75 L 147 326 L 178.5 326 L 178.5 338.5 C 178.5 346.50004 180.06248 352.125 183.1875 355.375 C 186.31252 358.625 191.0833 360.25 197.5 360.25 C 203.83336 360.25 208.58332 358.625 211.75 355.375 C 214.91668 352.125 216.5 346.50004 216.5 338.5 L 216.5 271.25 L 161 271.25 L 161 244 L 248.25 244 Z M 307.825 244 L 307.825 244 C 317.6584 244 326.4708 244.9375 334.2625 246.8125 C 342.0542 248.6875 348.67914 251.56248 354.1375 255.4375 C 359.59586 259.31252 363.7833 264.22914 366.7 270.1875 C 369.6167 276.14586 371.075 283.16663 371.075 291.25 C 371.075 299.4167 369.6167 306.4583 366.7 312.375 C 363.7833 318.2917 359.59586 323.18748 354.1375 327.0625 C 348.67914 330.9375 342.0542 333.8125 334.2625 335.6875 C 326.4708 337.5625 317.6584 338.5 307.825 338.5 L 290.825 338.5 L 290.825 383.5 L 259.075 383.5 L 259.075 244 L 307.825 244 Z M 307.575 312.5 C 313.07503 312.5 317.7625 312.10417 321.6375 311.3125 C 325.51252 310.52083 328.65832 309.27084 331.075 307.5625 C 333.4917 305.85416 335.2625 303.66668 336.3875 301 C 337.5125 298.33332 338.075 295.08335 338.075 291.25 C 338.075 283.74996 335.7417 278.33335 331.075 275 C 326.4083 271.66665 318.57506 270 307.575 270 L 290.825 270 L 290.825 312.5 L 307.575 312.5 Z" stroke="black" stroke-linecap="square" stroke-linejoin="miter" stroke-width="5"/>
      </g>
    </g>
  </g>
</svg>
